<svg xmlns="http://www.w3.org/2000/svg" xmlns:xlink="http://www.w3.org/1999/xlink" width="500" zoomAndPan="magnify" viewBox="0 0 375 374.999991" height="500" preserveAspectRatio="xMidYMid meet" version="1.0"><defs><g/></defs><rect x="-37.5" width="450" fill="#ffffff" y="-37.499999" height="449.999989" fill-opacity="1"/><rect x="-37.5" width="450" fill="#ffffff" y="-37.499999" height="449.999989" fill-opacity="1"/><g fill="#bba698" fill-opacity="1"><g transform="translate(16.3627, 219.576554)"><g><path d="M 1.890625 -62.875 L 48.59375 -62.875 L 49.484375 -44.1875 L 47.875 -44.1875 C 45.65625 -50.65625 43.09375 -55.054688 40.1875 -57.390625 C 37.28125 -59.722656 32.957031 -60.890625 27.21875 -60.890625 L 24.703125 -60.890625 L 24.703125 -31.703125 L 28.734375 -31.703125 C 31.609375 -31.703125 34.003906 -32.75 35.921875 -34.84375 C 37.835938 -36.9375 39.15625 -39.8125 39.875 -43.46875 L 41.21875 -43.46875 L 41.21875 -16.890625 L 39.703125 -16.890625 C 38.742188 -21.378906 37.410156 -24.582031 35.703125 -26.5 C 33.992188 -28.414062 31.671875 -29.375 28.734375 -29.375 L 24.703125 -29.375 L 24.703125 -1.96875 L 35.828125 -1.96875 L 35.828125 0 L 1.890625 0 L 1.890625 -1.96875 L 7.1875 -1.96875 L 7.1875 -60.890625 L 1.890625 -60.890625 Z M 1.890625 -62.875 "/></g></g></g><g fill="#bba698" fill-opacity="1"><g transform="translate(69.533005, 219.576554)"><g><path d="M 22.453125 -21.109375 L 25.0625 -21.109375 L 25.0625 -28.015625 C 25.0625 -33.703125 24.742188 -37.519531 24.109375 -39.46875 C 23.484375 -41.414062 22.273438 -42.390625 20.484375 -42.390625 C 19.398438 -42.390625 18.421875 -42.101562 17.546875 -41.53125 C 16.679688 -40.96875 16.25 -40.191406 16.25 -39.203125 C 16.25 -38.210938 16.429688 -37.207031 16.796875 -36.1875 L 19.046875 -36.1875 C 19.523438 -34.9375 19.765625 -33.425781 19.765625 -31.65625 C 19.765625 -29.894531 19.015625 -28.367188 17.515625 -27.078125 C 16.015625 -25.785156 14.128906 -25.140625 11.859375 -25.140625 C 6.703125 -25.140625 4.125 -27.628906 4.125 -32.609375 C 4.125 -39.972656 10.382812 -43.65625 22.90625 -43.65625 C 30.03125 -43.65625 34.953125 -42.441406 37.671875 -40.015625 C 40.398438 -37.585938 41.765625 -33.140625 41.765625 -26.671875 L 41.765625 -8.4375 C 41.765625 -5.320312 42.632812 -3.765625 44.375 -3.765625 C 46.40625 -3.765625 47.597656 -6.847656 47.953125 -13.015625 L 49.3125 -12.9375 C 49.070312 -7.664062 48.082031 -4.039062 46.34375 -2.0625 C 44.601562 -0.09375 41.757812 0.890625 37.8125 0.890625 C 30.625 0.890625 26.492188 -1.320312 25.421875 -5.75 C 24.640625 -3.46875 23.46875 -1.789062 21.90625 -0.71875 C 20.351562 0.351562 18.082031 0.890625 15.09375 0.890625 C 6.226562 0.890625 1.796875 -2.726562 1.796875 -9.96875 C 1.796875 -14.21875 3.484375 -17.132812 6.859375 -18.71875 C 10.242188 -20.3125 15.441406 -21.109375 22.453125 -21.109375 Z M 18.859375 -10.0625 C 18.859375 -6.945312 19.019531 -4.9375 19.34375 -4.03125 C 19.675781 -3.132812 20.304688 -2.6875 21.234375 -2.6875 C 22.160156 -2.6875 23.03125 -3.453125 23.84375 -4.984375 C 24.65625 -6.515625 25.0625 -8.625 25.0625 -11.3125 L 25.0625 -19.671875 L 24.421875 -19.671875 C 20.710938 -19.671875 18.859375 -16.945312 18.859375 -11.5 Z M 18.859375 -10.0625 "/></g></g></g><g fill="#bba698" fill-opacity="1"><g transform="translate(118.841282, 219.576554)"><g><path d="M 1.078125 -42.75 L 22.71875 -42.75 L 22.71875 -34.484375 C 23.675781 -37.242188 25.144531 -39.460938 27.125 -41.140625 C 29.101562 -42.816406 32.097656 -43.65625 36.109375 -43.65625 C 45.390625 -43.65625 50.03125 -38.65625 50.03125 -28.65625 L 50.03125 -1.609375 L 55.0625 -1.609375 L 55.0625 0 L 29.640625 0 L 29.640625 -1.609375 L 33.328125 -1.609375 L 33.328125 -30.8125 C 33.328125 -34.394531 33.085938 -36.710938 32.609375 -37.765625 C 32.128906 -38.816406 31.257812 -39.34375 30 -39.34375 C 28.082031 -39.34375 26.390625 -38.082031 24.921875 -35.5625 C 23.453125 -33.050781 22.71875 -30 22.71875 -26.40625 L 22.71875 -1.609375 L 26.578125 -1.609375 L 26.578125 0 L 1.078125 0 L 1.078125 -1.609375 L 6.015625 -1.609375 L 6.015625 -41.140625 L 1.078125 -41.140625 Z M 1.078125 -42.75 "/></g></g></g><g fill="#bba698" fill-opacity="1"><g transform="translate(174.167161, 219.576554)"><g><path d="M 26.046875 -42.03125 C 23.410156 -42.03125 21.523438 -40.59375 20.390625 -37.71875 C 19.253906 -34.84375 18.6875 -30.082031 18.6875 -23.4375 L 18.6875 -18.765625 C 18.6875 -12.835938 19.34375 -8.585938 20.65625 -6.015625 C 21.96875 -3.441406 24.390625 -2.15625 27.921875 -2.15625 C 31.460938 -2.15625 34.28125 -3.351562 36.375 -5.75 C 38.46875 -8.144531 39.816406 -10.867188 40.421875 -13.921875 L 42.03125 -13.734375 C 40.894531 -8.585938 38.800781 -4.878906 35.75 -2.609375 C 32.632812 -0.273438 28.351562 0.890625 22.90625 0.890625 C 15.957031 0.890625 10.625 -0.976562 6.90625 -4.71875 C 3.195312 -8.457031 1.34375 -13.929688 1.34375 -21.140625 C 1.34375 -28.359375 3.453125 -33.914062 7.671875 -37.8125 C 11.898438 -41.707031 17.785156 -43.65625 25.328125 -43.65625 C 30.660156 -43.65625 34.734375 -42.617188 37.546875 -40.546875 C 40.359375 -38.484375 41.765625 -35.894531 41.765625 -32.78125 C 41.765625 -29.664062 41.085938 -27.390625 39.734375 -25.953125 C 38.390625 -24.515625 36.535156 -23.796875 34.171875 -23.796875 C 31.804688 -23.796875 29.90625 -24.425781 28.46875 -25.6875 C 27.03125 -26.945312 26.3125 -28.800781 26.3125 -31.25 C 26.3125 -32.332031 26.460938 -33.410156 26.765625 -34.484375 L 29.734375 -34.484375 C 30.148438 -35.679688 30.359375 -36.757812 30.359375 -37.71875 C 30.359375 -40.59375 28.921875 -42.03125 26.046875 -42.03125 Z M 26.046875 -42.03125 "/></g></g></g><g fill="#bba698" fill-opacity="1"><g transform="translate(217.547668, 219.576554)"><g><path d="M 0.453125 -41.140625 L 0.453125 -42.75 L 26.5 -42.75 L 26.5 -41.140625 L 21.640625 -41.140625 L 31.4375 -11.3125 L 41.859375 -41.140625 L 35.828125 -41.140625 L 35.828125 -42.75 L 48.5 -42.75 L 48.5 -41.140625 L 44.015625 -41.140625 L 27.21875 7.28125 C 25.238281 12.90625 23.019531 16.835938 20.5625 19.078125 C 18.113281 21.328125 15.117188 22.453125 11.578125 22.453125 C 8.046875 22.453125 5.257812 21.644531 3.21875 20.03125 C 1.1875 18.414062 0.171875 16.347656 0.171875 13.828125 C 0.171875 11.316406 0.828125 9.398438 2.140625 8.078125 C 3.460938 6.765625 5.203125 6.109375 7.359375 6.109375 C 12.328125 6.109375 14.8125 8.171875 14.8125 12.296875 C 14.8125 13.203125 14.632812 14.28125 14.28125 15.53125 L 11.140625 15.53125 C 10.660156 16.914062 10.597656 18.054688 10.953125 18.953125 C 11.316406 19.847656 12.125 20.296875 13.375 20.296875 C 15.832031 20.296875 18.019531 19.082031 19.9375 16.65625 C 21.851562 14.226562 23.679688 10.53125 25.421875 5.5625 L 27.390625 0 L 19.484375 0 L 4.125 -41.140625 Z M 0.453125 -41.140625 "/></g></g></g><g fill="#bba698" fill-opacity="1"><g transform="translate(265.329089, 219.576554)"><g><path d="M 2.25 -62.875 L 29.640625 -62.875 L 29.640625 -61.15625 L 24.703125 -61.15625 L 24.703125 -1.703125 L 29.640625 -1.703125 L 29.640625 0 L 2.25 0 L 2.25 -1.703125 L 7.1875 -1.703125 L 7.1875 -61.15625 L 2.25 -61.15625 Z M 2.25 -62.875 "/></g></g></g><g fill="#bba698" fill-opacity="1"><g transform="translate(297.213312, 219.576554)"><g><path d="M 57.125 -62.875 L 58.015625 -40.328125 L 56.3125 -40.328125 C 53.675781 -48.285156 51.335938 -53.71875 49.296875 -56.625 C 47.265625 -59.53125 44.332031 -60.984375 40.5 -60.984375 L 39.421875 -60.984375 L 39.421875 -1.890625 L 47.0625 -1.890625 L 47.0625 0 L 14.28125 0 L 14.28125 -1.890625 L 21.921875 -1.890625 L 21.921875 -60.984375 L 20.75 -60.984375 C 16.914062 -60.984375 13.953125 -59.46875 11.859375 -56.4375 C 9.765625 -53.414062 7.457031 -48.046875 4.9375 -40.328125 L 3.234375 -40.328125 L 4.125 -62.875 Z M 57.125 -62.875 "/></g></g></g></svg>